<svg xmlns="http://www.w3.org/2000/svg" width="900" height="350" style="width:100%;height:100%;content-visibility:visible" viewBox="0 0 900 350"><defs><clipPath id="a"><path d="M0 0h900v350H0z"/></clipPath></defs><g clip-path="url(#a)"><g display="block"><path fill="#EBEBEB" d="M52.798-.001 8.876 37.8 46.37 88.456l82.945 2.907 63.968-31.985 31.526 1.989 15.15 52.953 113.246 8.569 13.008.918-22.036 19.743 62.284-16.529 24.18 1.836 42.085-73.611-83.099-48.513-127.018 9.947-34.739 32.903-29.995-4.896-19.742-35.505L52.798-.001z"/><path fill="#DDDDDC" d="m415.797 51.726-8.57-13.621-8.57 14.234 17.14-.613z"/><path fill="#FFF" d="m365.295 36.728-18.364 56.625 51.573 15.151 1.99-13.927 6.733-56.471-41.932-1.378z"/><path fill="#F4D65D" d="M350.911 32.443v48.515l34.586 2.14 4.284-52.95-38.87 2.295z"/><path fill="#B58A00" d="m355.807 67.336 24.944.305-.152 2.603-24.792-.307v-2.601zm-.153-21.884 24.792.306-.154 2.601-24.791-.306.153-2.601zm0 7.346 24.792.305v2.602l-24.792-.306v-2.601zm.153 7.192 24.792.307-.153 2.754-24.792-.306.153-2.755z"/><path fill="#CCAC13" d="m402.483 62.899 1.53 3.979-4.743 1.224 2.754 13.161 12.243-.918.306 5.51-11.325.765.919 4.744 5.356-.459.306 4.285 5.815-.919-1.071-3.825 4.897-.307-.46-15.456-13.466 1.529-.918-5.203 11.018-1.989-1.683-4.744-5.815 1.53-.153-3.978-5.51 1.071z"/><path fill="#2B2B2B" d="m50.808 61.521 28.924 14.998 23.261-2.448 18.823 3.214 15.457-20.202-75.446-10.101-9.183 2.755-1.836 11.784z" opacity=".1"/><path fill="#755700" d="m101.31 68.254 6.886-2.448s-5.356-3.825-5.662-3.978c-.307 1.531-1.224 6.426-1.224 6.426zM71.927 56.47l7.04-2.602s-5.509-3.825-5.663-3.978c-.459 1.53-1.377 6.58-1.377 6.58z"/><path fill="#CCAC13" d="m137.273 57.082-.459-7.345-3.214-4.896-11.477 2.294-7.346 8.723v8.418l1.683 4.897 20.813-12.091z"/><path fill="#9E7700" d="m136.354 44.228-21.578 11.631-7.651-1.378-3.367-3.52 9.488-7.192 12.243-2.602 10.865 3.061z"/><path fill="#755700" d="m123.959 42.085-16.376 8.571 7.193 3.367 17.753-9.642-8.57-2.296z"/><path fill="#8F8F8F" d="m118.602 30.913 3.674 5.509 3.319 4.731-21.837 9.808-4.744-6.428-1.378-5.05 10.407-7.04 10.559-1.53z"/><path fill="#E4C728" d="m93.658 23.568 24.945 7.346-20.966 8.57-13.313-2.755-11.785-6.274 21.119-6.887z"/><path fill="#CCAC13" d="m60.449 35.198 12.09-4.744-2.449 7.958-5.509-.612-4.132-2.602z"/><path fill="#B58A00" d="m116.46 69.172-54.634-22.19-1.378-11.784 6.888 1.53 5.202-6.274 25.098 9.03 6.121 11.477 11.019 4.898 1.684 13.313z"/><path fill="#F4D65D" d="m136.814 49.736-4.745 3.214-.765-5.968 5.05-2.754.46 5.508zM121.051 52.491l.612 6.275-6.121 3.827-.765-6.735 6.274-3.367z"/><path fill="#737373" d="M99.626 49.583 95.8 41.167l-11.325-3.979-.458 6.121 15.609 6.274zM82.027 36.422l-8.111-3.061-4.744 4.286 12.702 4.744.153-5.969z"/><path fill="#856300" d="M98.249 56.93c-2.602 0-4.132 2.602-3.52 5.815.459 3.061 3.061 5.663 5.509 5.663 2.602 0 4.133-2.602 3.52-5.663-.459-3.213-3.06-5.815-5.509-5.815z"/><path fill="#E4C728" d="M98.861 60.754c-.918 0-1.377.767-1.224 1.991.306 1.072 1.071 1.989 1.99 1.989.918 0 1.377-.917 1.224-1.989-.306-1.224-1.072-1.991-1.99-1.991z"/><path fill="#856300" d="M68.866 44.992c-2.602 0-4.132 2.603-3.52 5.816.613 3.061 3.061 5.664 5.663 5.664 2.448 0 3.979-2.603 3.519-5.664-.612-3.213-3.213-5.816-5.662-5.816z"/><path fill="#E4C728" d="M69.478 48.818c-.765 0-1.377.766-1.071 1.99.153 1.072.918 1.99 1.836 1.99s1.378-.918 1.224-1.99c-.153-1.224-1.071-1.99-1.989-1.99zM130.693 33.514l-15.303 6.888-9.795 11.324 19.895-10.56 9.793-8.876-4.59 1.224z"/><path fill="#CCAC13" d="m115.695 41.319-10.1 10.407-1.837-.765 11.172-11.172 19.13-8.723 1.224 1.224-19.589 9.029z"/><path fill="#A2A2A2" d="m136.354 44.228-5.05-8.265-1.224 1.072 4.897 7.958 1.377-.765z"/><path fill="#FFF" d="m264.292 38.564 48.666-2.754 2.294 48.972-46.981.612-3.979-46.83z"/><path fill="#DDDDDC" d="m269.036 43.615.765 4.591 39.024-2.907-.153-4.744-39.636 3.06zm.765 9.183 3.52 27.547 37.341.306-1.071-30.608-39.79 2.755z"/><path fill="#A2A2A2" d="m279.289 58.001 7.039-1.071 2.143 3.368-3.367 3.824 4.591 1.379-1.988 9.029-7.499-.919.153-3.214 4.743.306.46-2.907-5.663-1.836 4.286-5.662-4.438.763-.46-3.06zm14.539-1.225-3.06 5.97 1.836 10.405 7.498.46 1.072-7.039h-2.908l-.459 4.131-2.295-.458-1.377-6.581 1.989-3.521 2.448 3.979-.306 2.45h2.908l.459-3.214-3.061-5.969-4.744-.613zM305.764 68.714l3.214-3.214 4.133 1.684-2.756 5.203-4.591-3.673zm4.285-5.663 7.346-15.304 6.427 4.285-9.487 12.703-4.286-1.684z"/></g><g display="block"><path fill="#CCAC13" d="m220.829 153.652-1.684-2.449-6.733-.918-8.875 4.744v4.744l3.978-.765 7.345-3.979 3.367.612 2.602-1.989z"/><path fill="#9E7700" d="m219.147 151.203-.919 4.438 4.439.918.765-4.744-4.285-.612z"/><path fill="#CCAC13" d="m232.614 173.088-.46-3.061-5.661-3.672-11.02.611-1.071 4.133 3.826 1.071 8.418-.459 2.754 2.142 3.214-.765z"/><path fill="#9E7700" d="m232.154 170.027-2.755 3.825 3.673 2.603 2.755-4.133-3.673-2.295z"/></g><g display="block"><path fill="#EBEBEB" d="M79.884 288.02 0 308.068 130.692 350l251.13-27.699-87.23-37.342-81.72-13.621L79.884 288.02z"/><path fill="#DDDDDC" d="m158.697 146.152-106.053 6.274 51.42 16.988 78.507-4.439 20.965-9.947-44.839-8.876z"/><path fill="#2B2B2B" d="m61.52 327.81 96.412.766 51.267-31.068-129.315-9.488-79.885 20.048L61.52 327.81z" opacity=".1"/><path fill="#DDDDDC" d="m158.085 268.43 223.737 53.871 19.895-41.015-243.632-12.856zM655.45 350l244.551-43.769-29.536-25.71-213.79-25.251L655.45 350z"/><path fill="#C4C4C4" d="m401.718 281.287-17.293 41.166L666.927 350l4.132-95.036-269.341 26.323z"/><path fill="#2B2B2B" d="m403.095 281.133 84.627 18.976 83.558-22.038-28.464-10.558-139.721 13.62zm417.938 10.865-160.381-4.897-55.092-25.71 51.267-5.05 164.206 35.657z" opacity=".1"/><path fill="#C4C4C4" d="m512.822 212.877-69.784 5.203 59.837 17.141 61.977-12.396-52.03-9.948z"/><path fill="#8F8F8F" d="m455.126 243.026-3.061 23.263 3.215 14.078 10.865-1.529 5.203-31.68-6.734-4.897-9.488.765z"/><path fill="#A2A2A2" d="m537.764 245.474 7.653 33.362 11.325 2.451 2.141-6.428-5.968-30.303-15.151.918zM443.037 218.08l-4.744 59.686 16.987 2.601 5.509-34.892 20.506 3.367 2.601 36.269 18.978 3.521 7.957-37.189-7.957-22.65-59.837-10.713z"/><path fill="#8F8F8F" d="M502.874 228.793v59.84l13.008-2.144 4.744-36.269 29.688-3.52 6.734 34.28 14.232-2.909-6.427-55.246-61.979 5.968z"/><path fill="#EBEBEB" d="m528.124 0-158.85 350h2.602L530.726 0h-2.602z"/><path fill="#A2A2A2" d="m101.156 180.893 6.887 96.26 87.536-6.733 8.57-7.194 21.731-85.853-23.874-8.724-100.85 12.244z"/><path fill="#8F8F8F" d="m88.454 229.252-10.56 41.934 30.149 5.967 7.193-5.203-4.133-84.324-22.649 41.626z"/><path fill="#CCAC13" d="m23.261 292.61-3.367-.459-.765-6.581 6.735-12.243 3.367-.765.918 2.449-6.429 11.019.765 4.591-1.224 1.989zM40.706 279.602l.308 9.642-3.062 3.367-.153 2.755 3.06.152 3.98-4.285-.153-9.946-1.683-2.755-2.297 1.07z"/><path fill="#B58A00" d="m35.045 273.633-3.826 9.642 3.366 1.684 2.908-6.735-2.448-4.591z"/><path fill="#CCAC13" d="m69.784 280.215 5.509 9.028-2.295 4.286 1.377 3.213 2.449-1.53 3.06-7.192-5.662-8.724-3.52-.918-.918 1.837z"/><path fill="#8F8F8F" d="m25.863 273.328 5.662-48.972 33.056 1.683 2.602 36.271-15.916 21.579-25.404-10.561z"/><path fill="#A2A2A2" d="m51.267 283.888 28.312-5.663 13.467-49.432-28.466-2.755-13.313 57.85z"/><path fill="#A2A2A2" d="m31.525 224.355-10.253-35.198 24.945-.461 28.923 17.448-12.242 27.088-31.373-8.877z"/><path fill="#C4C4C4" d="m59.837 200.175 3.06 33.056 50.042-7.345-1.836-38.26-18.975-3.673-32.291 16.222zM52.644 152.427l-31.372 36.729 38.565 11.019 25.71-18.977 15.609-18.976-48.512-9.795z"/><path fill="#DDDDDC" d="m101.156 162.221-41.319 37.954 51.266-12.549 3.214-13.314-13.161-12.091z"/><path fill="#9E7700" d="m19.894 292.152 4.592-1.53.612 4.591-4.745 1.53-.459-4.591zM37.953 292.611l2.908 2.907-3.062 3.061-3.06-2.448 3.214-3.52zM72.998 293.529l3.826 1.683-1.837 4.131-4.132-1.835 2.143-3.979z"/><path fill="#C4C4C4" d="m101.156 162.221 9.947 25.405 114.777-10.254-22.344-22.343-42.696-1.991-35.658 7.5-24.026 1.683z"/><path fill="#8F8F8F" d="m122.428 191.146-1.836 2.296 1.224 5.969 1.989 1.529 4.285-6.427-5.662-3.367z"/><path fill="#737373" d="m120.592 193.441-2.296 2.755 3.52 3.214 2.755-3.673-3.979-2.296z"/><path fill="#8F8F8F" d="m140.027 189.617-1.836 1.836.918 5.968 1.53 1.683 4.592-5.662-5.204-3.825z"/><path fill="#737373" d="m138.191 191.452-2.449 2.602 3.367 3.366 2.755-3.826-3.673-2.142z"/><path fill="#8F8F8F" d="m158.085 188.545-1.99 2.449.918 5.049 1.837 1.837 3.673-5.662-4.438-3.673z"/><path fill="#737373" d="m156.096 190.993-1.837 2.142 2.755 2.908 2.449-3.214-3.367-1.836z"/><path fill="#8F8F8F" d="m175.532 187.013-1.837 2.143 1.377 5.203 1.684 1.683 3.367-5.203-4.591-3.826z"/><path fill="#737373" d="m173.695 189.156-1.837 2.144 3.214 3.06 2.296-3.214-3.673-1.99z"/><path fill="#C4C4C4" d="m97.483 92.589 31.831-1.225 10.407 31.986-14.539 37.188-49.583-9.488 21.884-58.461z"/><path fill="#DDDDDC" d="m83.863 110.189 22.802.459 3.979 7.498-14.079 3.367-13.927-4.285 1.225-7.039z"/><path fill="#A2A2A2" d="m85.087 125.492-2.449-8.265 28.006.918-3.673 7.654-21.884-.307z"/><path fill="#C4C4C4" d="m78.966 101.924 9.183 15.457-6.734 2.755-6.887-1.225-7.345-15.916 11.783-1.071z"/><path fill="#8F8F8F" d="m70.397 133.45-.46-10.713 7.192-5.815 11.019.459-5.815 15.762-11.936.307z"/><path fill="#8F8F8F" d="m61.06 118.452 6.122-15.456 9.948 13.926-6.734 16.528-9.336-14.998z"/><path fill="#C4C4C4" d="m199.864 102.383 8.57 14.386-6.274 2.6-6.428-1.223-6.887-14.845 11.019-.918z"/><path fill="#A2A2A2" d="m191.752 131.919-.306-10.1 6.58-5.356 10.407.306-5.509 14.844-11.172.306z"/><path fill="#8F8F8F" d="m183.03 117.84 5.815-14.539 9.183 13.162-6.275 15.456-8.723-14.079z"/><path fill="#C4C4C4" d="M181.5 111.412h5.968l4.285 6.733-5.815 2.145-5.969-2.602 1.531-6.276z"/><path fill="#A2A2A2" d="m179.969 117.688 11.784.458-3.214 7.04-8.57-7.498z"/><path fill="#DDDDDC" d="m129.314 91.364-4.132 69.174 78.354-5.51-31.372-62.134-42.85-1.53z"/><path fill="#8F8F8F" d="m119.368 276.389-39.789 1.836.918 26.629 36.576 7.499 4.897-17.905-2.602-18.059z"/><path fill="#A2A2A2" d="m212.872 271.338-3.673 26.17-92.127 14.845-1.378-30.913 43.003-8.265 54.175-1.837z"/><path fill="#C4C4C4" d="m204.149 263.227 8.723 8.111-97.178 10.101-36.116-3.214 2.755-10.101 32.902 3.827 88.914-8.724z"/><path fill="#2B2B2B" d="m756.299 331.941 62.285-11.172-58.459-13.161-51.114 10.866 47.288 13.467z" opacity=".1"/><path fill="#C4C4C4" d="M808.944 0 669.682 22.802 658.97 256.799l162.063 35.199 9.489-47.289-8.418-213.336L808.944 0z"/><path fill="#9DA0A1" d="m808.944 0 12.089 291.998 49.431-11.477 18.21-249.148L808.944 0z"/><path fill="#A2A2A2" d="m682.23 37.801 38.718.765 40.554 7.193 7.346 195.278-57.694 9.029-33.361-1.377 4.437-210.888z"/><path fill="#CECECD" d="m765.941 39.177-12.09 7.652 5.969 193.288 21.271 9.183 22.344-4.592-8.264-203.388-29.23-2.143z"/><path fill="#8F8F8F" d="m753.852 46.83-71.621-9.029 112.175-16.375.765 19.894-41.319 5.51z"/><path fill="#DDDDDC" d="m677.793 248.688 82.026-8.57 43.616 4.591 1.071 28.006-126.713-24.027z"/><path fill="#F4D65D" d="m764.87 65.194-17.6 3.674-12.547 84.784 19.588-.153 10.559-88.305z"/><path fill="#CCAC13" d="m777.725 68.714-12.856-3.521 10.253 88.764 24.487-1.989-21.884-83.254z"/><path fill="#E4C728" d="m757.678 168.189-5.204-14.69 12.395-88.304 13.927 88.457-3.519 13.772-17.599.765z"/><path fill="#E4C728" d="m756.3 229.865-21.578-76.214 19.589-.153 11.171 79.122-9.182-2.755z"/><path fill="#BE8F00" d="m799.608 151.967-24.179 77.592-9.948 3.06 9.642-78.662 24.485-1.99z"/><path fill="#CCAC13" d="m752.474 153.498 13.008 79.122 13.314-78.968-26.322-.154z"/><path fill="#EBEBEB" d="m765.023 139.571-12.55 13.927 12.702 14.385 13.62-14.232-13.772-14.08z"/><path fill="#C4C4C4" d="m726.152 243.639-.154 6.121 42.238 6.581 1.226-2.755-2.143-4.285-17.753-5.203-23.414-.459z"/><path fill="#A2A2A2" d="M793.793 243.639h-18.211l-8.264 5.662.918 7.04 27.394-5.357-1.837-7.345z"/><path fill="#DDDDDC" d="m759.819 237.975-33.668 5.663 41.167 5.663 26.475-5.663-33.974-5.663z"/><path fill="#CCAC13" d="m758.9 242.567 6.581-9.948 3.367 6.886-3.214 4.134-6.734-1.072z"/><path fill="#BE8F00" d="m772.981 242.567-7.346 1.072-.154-11.02 7.5 9.948z"/><path fill="#E4C728" d="m751.096 81.876-17.599-8.724 3.673 9.336 13.926-.612z"/><path fill="#CCAC13" d="m751.096 81.876-12.549-1.53-4.896 1.378v5.968l17.445-5.816z"/><path fill="#F4D65D" d="m733.498 73.152-5.203 7.807 5.355 6.733 4.898-7.346-5.05-7.194zM773.745 80.192l17.6-9.029-3.52 9.336-14.08-.307z"/><path fill="#E4C728" d="m773.746 80.193 12.55-1.836 5.05 1.377.153 5.815-17.753-5.356z"/><path fill="#CCAC13" d="m791.345 71.163 5.356 7.193-5.203 7.193-5.203-7.193 5.05-7.193z"/><path fill="#8F8F8F" d="m132.07 249.607 63.356-6.123-1.224 4.897-61.367 5.817-.765-4.591zm1.377 9.336 59.531-5.663-1.225 4.743-57.541 5.511-.765-4.591z"/></g><g display="block"><path fill="#2B2B2B" d="m633.412 307.148 47.9 15.152 40.402-11.172-32.597-11.785-55.705 7.805z" opacity=".1"/><path fill="#B58A00" d="m656.215 251.29 3.214 26.323 10.253 6.121 9.794-5.815 3.367-14.845-5.05-11.784-14.232-2.754-7.346 2.754z"/><path fill="#856300" d="m656.215 251.29 20.966-2.602 34.126 4.898-13.926 8.876-14.538.612-26.628-11.784z"/><path fill="#B58A00" d="m711.307 253.586-1.07 24.944-9.336 4.438-12.855-4.744-5.203-15.15 28.464-9.488z"/><path fill="#4F5252" d="m710.083 308.833-.765-8.265-7.193-4.437-6.58 3.826-4.898 8.876 9.795.918 9.641-.918zM675.497 305.312l-.152-8.264-7.347-3.367-6.121 2.908-11.324 8.723 12.548 1.379 12.396-1.379z"/><path fill="#464646" d="M675.497 305.312h-24.944v2.756h24.944v-2.756zM710.083 308.833h-19.282v3.214h19.282v-3.214z"/><path fill="#9E7700" d="m709.318 300.568-13.773-.611-7.499-21.733 22.19.307-.918 22.037zM675.345 297.049l-13.469-.459-2.447-18.977 20.046.306-4.13 19.13z"/></g><path fill="#C4C4C4" d="m644.431 217.164 8.723-24.029 9.487 22.803-7.345 17.907-9.795-7.04-1.07-9.641z" display="block"/><g display="block"><path fill="#A2A2A2" d="m634.636 236.141-4.744-5.203.765-5.663 13.773-8.11 10.866 16.681-20.66 2.295z"/><path fill="#7E5D4E" d="m612.905 236.141 5.662-3.521h8.723l2.296 3.98-7.499 8.876-9.335-3.367.153-5.968z"/><path fill="#A17D6D" d="m614.436 226.499 10.559 1.989 2.294 4.132-3.977 2.449-10.101-5.357 1.225-3.213zM602.958 238.13l9.946-1.988 9.182 9.335-13.008.151-6.12-7.498z"/><path fill="#EBEBEB" d="m630.657 225.274 3.979 10.867-5.05.459-4.592-8.112 5.663-3.214z"/></g><g display="block"><path fill="#DDDDDC" d="m674.121 185.637-3.674 4.896.152 10.714 2.909 6.122 3.52.306 8.417-16.988-7.805-6.428-3.519 1.378z"/><path fill="#8F8F8F" d="m675.191 191.911-2.142-4.744 4.591-2.908 4.591 3.826-3.978 4.132 2.601 7.806-4.592 6.886-2.754-.611-1.683-7.195 3.366-7.192z"/><path fill="#C4C4C4" d="m666.621 183.188 3.214 2.604 1.683 4.896 4.285 15.916-6.733-2.754-10.407-11.478 7.958-9.184z"/><path fill="#CECECD" d="m656.215 251.291 20.66 1.071 5.049-19.894-6.122-25.865-15.151-14.385 5.969-9.03-13.466 9.948 3.061 58.155z"/><path fill="#C4C4C4" d="m712.685 219.918-1.378 33.669-34.432-1.225-.306-6.734-.766-39.024 13.927-12.855 7.04-9.948 17.293 6.274-9.183 18.671 7.805 11.172z"/><path fill="#CECECD" d="m696.77 183.8-3.522 12.856-17.446 9.948 7.346-14.386 5.51-5.662 8.112-2.756z"/><path fill="#EBEBEB" d="m677.794 184.412 5.354 7.806 13.622-8.418-2.909-3.52-8.876.153-7.191 3.979zM671.519 190.687l6.274-6.274-5.51-4.44-3.519.308-2.143 2.906 3.672 5.816 1.226 1.684z"/><path fill="#858585" d="m673.814 242.721 2.754-3.215 3.214 3.063-3.214 3.059-2.754-2.907zM673.661 230.63l2.602-3.214 3.212 3.214-3.058 2.908-2.756-2.908z"/></g><g display="block"><path fill="#583D35" d="m666.009 169.567 2.755 10.714 9.029 4.132 9.794-2.602 3.52-2.295-3.827-7.041-21.271-2.908z"/><path fill="#7E5D4E" d="m684.527 174.618 3.06 7.193 6.274-1.53 11.325-18.518-2.296-14.387 1.226-23.414-3.674-4.133-3.214 2.908-3.674 2.907-9.946 41.782.919 7.192z"/><path fill="#583D35" d="m705.187 161.762-4.744-8.264h7.346l1.376 1.99-3.978 6.274z"/><path fill="#A17D6D" d="m646.421 164.518 38.105 10.101 12.701-51.881-11.324-5.357-32.291 3.061-7.191 44.076z"/><path fill="#4F5252" d="m726.612 131.002-17.447 24.486-1.224-4.285-11.325-3.06.611-25.405 17.295 1.99 12.09 6.274z"/><path fill="#737373" d="m697.228 122.738 29.384 8.264-12.397-24.946-13.008 7.499-3.979 9.183z"/><path fill="#4F5252" d="m648.257 104.526 5.355 15.916 43.615 2.296-28.617-12.09-20.353-6.122z"/><path fill="#8F8F8F" d="m714.215 106.056-16.987 16.682-20.659-16.069-8.876-12.855 46.522 12.242z"/><path fill="#737373" d="m667.693 93.813 29.535 28.926-48.972-18.212 19.437-10.714z"/><path fill="#A17D6D" d="m703.809 140.643-3.367 12.856 8.722 1.99 3.828-12.09-9.183-2.756z"/><path fill="#583D35" d="m705.952 144.775 3.366.766-4.896 4.744 1.53-5.51z"/><path fill="#7E5D4E" d="m654.532 128.859 6.579.919 3.367 1.684 1.072 5.355-4.286 9.948-6.732-17.906zM669.528 148.602l1.071-11.173 2.908-4.284 5.51-.153 7.345 2.142-16.834 13.468z"/><path fill="#AA8D80" d="m661.265 146.765 3.366 1.684 4.897.152 3.979-15.457-9.029-1.683-3.213 15.304z"/><path fill="#583D35" d="m664.479 150.131-3.214-3.366 8.264 1.836-5.05 1.53z"/><path fill="#464646" d="m654.532 128.858 6.274-.918 3.672 3.522-9.946-2.604zM673.508 133.144l5.815-1.836 7.039 3.826-12.854-1.99z"/><path fill="#583D35" d="m658.204 153.499 2.448 8.724 9.03 2.448 7.958-7.958-19.436-3.214z"/><path fill="#FFF" d="m660.5 155.335 13.16 2.296-2.141 2.448-9.948-1.989-1.071-2.755z"/><path fill="#2B2B2B" d="M656.828 137.124c1.224 0 2.295 1.071 2.295 2.143 0 1.223-.918 2.295-2.143 2.295-1.223 0-2.295-1.072-2.295-2.295 0-1.072.918-2.143 2.143-2.143zM675.651 141.408c1.225 0 2.142.918 2.142 2.143.153 1.223-.917 2.295-2.142 2.295-1.225 0-2.143-1.072-2.143-2.295 0-1.225.918-2.143 2.143-2.143z"/></g><path fill="#CECECD" d="m702.737 225.427 9.947-5.509 1.378-29.843-28.924 24.487 4.897 8.264 12.702 2.601z" display="block"/><g display="block"><path fill="#A2A2A2" d="m668.611 215.48 16.375 19.59 17.751-9.642-26.935-18.824-4.437 1.684-2.754 7.192z"/><path fill="#EBEBEB" d="m664.02 210.583 4.59 4.896 7.192-8.875-3.825-3.827-3.826 1.531-4.131 6.275z"/><path fill="#7E5D4E" d="m660.652 192.218 1.378 6.735 9.946 3.826-5.05-11.326-6.274.765z"/><path fill="#A17D6D" d="m660.652 192.218 11.325 10.561-7.959 7.805-7.191-1.99-3.521-10.254-8.876.306-.459-4.438 16.681-1.99z"/></g><g display="block"><path fill="#4F5252" d="m507.158 166.047 6.274-2.602 7.194 17.294-6.275 2.602-7.193-17.294z"/><path fill="#858585" d="m525.063 161.762-27.24 11.325.153 14.539 31.831-12.55-4.744-13.314z"/><path fill="#6E7073" d="m497.976 187.626 7.805 1.684 29.229-10.866-3.366-4.132h-3.214l-30.454 13.314z"/><path fill="#4F5252" d="m526.9 194.819-6.275-14.079-6.275 2.601 5.968 14.539 3.979 1.53 2.603-4.591z"/><path fill="#6E7073" d="M525.063 161.762h3.214l4.436.307 2.296 16.377-6.58-4.134-3.366-12.55z"/></g><g display="block"><path fill="#E4C728" d="m539.142 188.85 27.853 2.754 13.62 52.799 3.52 8.722-45.911-.305-11.019 2.296v-8.571l11.937-57.695z"/><path fill="#BE8F00" d="m526.9 194.819 12.242-5.969 5.662 34.282h-6.733l-7.498-16.069-3.673-12.244zM527.206 246.546l34.279-20.66 19.894 5.662 4.133 22.038.336 7.693-30.483-4.327-26.619 2.022-1.846-6.613.306-5.815z"/><path fill="#CCAC13" d="m589.644 216.856-2.755 5.815-5.51 8.877-6.733-12.702-3.214-17.907 2.603-6.733 6.427 2.45 9.182 20.2zM518.483 224.661l-8.876-21.578 17.293-8.265 11.171 28.313-7.192 5.509-12.396-3.979z"/><path fill="#B58A00" d="m574.035 194.205-7.04-2.602v17.601l.096 6.659 2.15 19.329 12.544-1.316-5.762-23.754-1.988-15.917z"/></g><g display="block"><path fill="#9E7700" d="m522.462 116.156-10.101-10.713-14.079 11.326 11.326.766 12.854-1.379z"/><path fill="#BE8F00" d="M498.282 116.768 477.47 133.91l29.841-11.173 15.151-6.581-24.18.612z"/><path fill="#755700" d="m477.47 133.908 38.412-2.754 6.58-14.998-44.992 17.752z"/></g><g display="block"><path fill="#DFBCA4" d="m591.175 136.357.458 22.038-2.755 20.966-17.599 4.132-8.723 8.418-12.855-.613-10.559-2.448-5.967-16.681-4.898-10.408-4.898-12.09-1.376-18.976 17.445 7.499 25.25-.766 6.275-8.111 6.581 6.887 13.621.153z"/><path fill="#C3977A" d="m545.111 138.805 1.377 22.038-4.897 3.214-4.897-2.755-1.684-8.876 4.591-.153-.152-13.315 5.662-.153zM566.383 159.772l-7.192-12.396-14.079-8.571 21.424-2.907-.153 23.874zM577.861 156.099l11.63-19.742-14.692-1.684 3.062 21.426z"/><path fill="#C09C84" d="m591.634 158.395-63.356 3.367 19.435 29.537 7.346 1.836 17.139-9.028 20.048-1.225-.612-24.487z"/><path fill="#A77D61" d="m546.489 160.843 1.683 24.64 5.969 2.296 5.356 14.844-20.354-13.773-7.804-19.131-.154-3.673-2.908-4.285 8.418-.459 9.794-.459z"/><path fill="#8A6651" d="m572.198 184.106-27.088 1.53 14.385 16.988 12.703-18.518zM536.695 161.302l-5.356 8.418-3.062-7.958 8.418-.46zM566.383 159.772l6.121 3.826 5.357-4.438-5.664-.306-5.814.918z"/><path fill="#464646" d="m545.111 138.805 20.354 4.746-.153-5.664-8.111-.306-12.09 1.224zM577.401 143.397l-.306-6.427 5.509-1.071 6.887.459-12.09 7.039zM539.449 138.958l.151 13.315-4.59.154-1.225-6.428-10.406 3.673-7.497-18.519 13.619 1.377 9.948 6.428z"/><path fill="#8A6651" d="m526.901 151.661 3.978-1.224 2.142 7.652-6.12-6.428z"/><path fill="#9E7700" d="m538.99 115.084-8.723-.306-7.805 1.378-3.673 6.581-2.907 8.417 14.691-9.182 8.417-6.888z"/><path fill="#856300" d="m522.462 116.156 22.803-10.713 20.2-6.887 23.721 14.693-27.546 2.295-22.65-.459-7.345.459-9.183.612z"/><path fill="#BE8F00" d="m565.465 98.556-35.197.612-7.807 16.988 43.004-17.6z"/><path fill="#E4C728" d="m538.99 115.084 61.978-2.295.919 23.108-24.792 1.073-6.122-7.653-5.661 8.571-25.863 1.071-1.226-13.773.767-10.102z"/><path fill="#464646" d="m545.723 120.441 22.802-.918-7.499 12.243-14.997.459-.306-11.784zM595.765 118.452l-22.802.766 8.416 11.63 14.998-.458-.612-11.938z"/><path fill="#CCAC13" d="m539.45 138.959-23.568-7.805 23.108-16.069.46 23.874z"/><path fill="#E8C9B6" d="m570.974 129.317 6.121 7.652.766 22.192-11.478.612-1.07-21.886 5.661-8.57z"/><path fill="#8A6651" d="m581.228 167.425-23.262-.153 7.039 9.182 11.02-.153 5.203-8.876z"/><path fill="#FFF" d="M578.626 168.648h-17.294l4.745 6.276 9.027-.306 3.522-5.97z"/><path fill="#2B2B2B" d="M584.87 144.708a2.822 2.822 0 1 1-.344 5.634 2.822 2.822 0 0 1 .344-5.634zM560.511 146.366a2.821 2.821 0 1 1-2.988 2.645 2.821 2.821 0 0 1 2.988-2.645z"/></g><g display="block"><path fill="#C3977A" d="m614.742 219.304 5.202-13.467-4.131-8.569-7.651 9.028-1.378 6.429 7.958 6.579zM581.379 231.548l10.561-21.272 9.793-.613-.153 7.806-5.203 21.424-14.998-7.345z"/><path fill="#8A6651" d="m591.94 210.275 16.222-3.979 6.58 13.008-13.161-1.836-9.641-7.193z"/><path fill="#C4C4C4" d="m595.46 178.444-2.449 9.182-7.958 4.896 6.887 17.754 16.222-3.978 7.651-9.03-2.448-13.621-8.112.152-9.793-5.355z"/><path fill="#A2A2A2" d="m591.94 210.275 8.723-4.438 7.499.459-16.222 3.979z"/><path fill="#F4D65D" d="m587.96 199.868 8.11-3.213-.305-6.428 10.406-3.826 3.214 5.357 5.203-1.836.612 3.672-4.591 1.837.612 7.193-10.559 3.213-3.367-5.509-7.957 3.366-1.378-3.826z"/><path fill="#B58A00" d="M599.591 192.369v5.356l3.367 4.899 5.661-2.143-1.223-6.275-2.602-3.826-5.203 1.989z"/><path fill="#A2A2A2" d="m585.052 192.522 10.712-2.295-.305-11.783-3.214 4.437-7.193 9.641z"/><path fill="#DDDDDC" d="m595.46 178.444 10.711 7.958 7.193-2.754-17.904-5.204z"/><path fill="#F4D65D" d="M597.373 179.054z"/></g><g display="block"><path d="m494.303 318.474 51.42-11.632 81.873 10.866-66.57 13.927-66.723-13.161z" opacity=".1"/><path fill="#856300" d="m587.349 262.461 1.225 35.811-7.194 3.673-13.16 3.98-11.172-25.864 10.253-10.1 20.048-7.5z"/><path fill="#8D7B2E" d="m565.465 299.497 22.955-7.192.153 5.967-7.804 6.122-12.549 1.531-2.755-6.428z"/><path fill="#755700" d="m588.573 298.273 13.62 15.61-16.069 1.836-17.905-1.836v-7.958l20.354-7.652z"/><path fill="#BB8F2C" d="m568.158 313.883 34.073-.057.007 3.702-34.073.056-.007-3.701z"/><path fill="#9E7700" d="m557.048 280.062-11.324 26.781-5.203.919-18.059.306 3.825-43.77 19.742 1.531 11.019 14.233z"/><path fill="#BE8F00" d="m587.349 262.462-30.301 17.6-30.761-15.764 18.978-1.683 42.084-.153z"/><path fill="#856300" d="m585.513 253.587-14.691-.153-8.265-.155-35.656-.918-.614 11.938 36.882-1.071 8.264-.306 15.916-.459-1.836-8.876z"/><path fill="#CCAC13" d="m562.557 253.279.612 9.948 8.264-.305-.611-9.489-8.265-.154z"/><path fill="#755700" d="m545.724 306.843 3.366 8.724-28.924.612 2.296-8.111 15.151-3.979 8.111 2.754z"/><path fill="#CCAC13" d="m520.166 320.005 29.076.152-.151-4.59-28.925.612v3.826z"/><path fill="#BE8F00" d="m548.477 300.11-25.25-.766-.766 8.724 23.262-1.225 2.754-6.733z"/><path fill="#9E7700" d="m580.921 277.307 7.04 4.285.307 6.121-8.877 1.684-3.367-13.468 4.897 1.378z"/><path fill="#B58A00" d="m587.655 273.327.306 8.266-11.936-5.664 11.63-2.602z"/></g><g display="block"><path fill="#E4C728" d="m544.345 239.2-17.14 7.347-8.722-21.885 19.588-1.531 6.122 7.651.152 8.418z"/><path fill="#DFBCA4" d="m559.802 220.835-21.731 2.296 6.274 16.07 18.671-8.111 1.223-5.052-4.437-5.203z"/><path fill="#8A6651" d="m559.802 220.836 20.354-10.254-13.162-1.378-7.192 11.632z"/><path fill="#C3977A" d="m563.016 231.089 18.363.459-1.531-14.691 6.275-7.805-1.989-4.286-24.333 16.069 3.215 10.254z"/></g><g display="block"><path fill="#755700" d="m778.183 318.628-.306-4.439 11.478-1.99 10.406 2.143.306 4.593-21.884-.307z"/><path fill="#B58A00" d="m788.743 301.64-4.132 1.99-6.733 10.559 21.884.153-4.898-10.406-6.121-2.296z"/><path fill="#737373" d="m778.489 283.428-6.733 6.887 11.325 15.763 11.783-2.142-3.673-18.365-12.702-2.143z"/><path fill="#4F5252" d="m750.177 302.251 9.795-13.619-8.264-5.511-11.172 1.685-1.99 15.303 4.592 4.286 7.039-2.144z"/><path fill="#737373" d="m744.057 250.219 12.396 10.254 13.466 17.292-9.947 10.866-19.435-3.825 3.52-34.587z"/><path fill="#B58A00" d="m725.233 311.894 13.313-11.784 11.631 2.142-.459 10.101-9.487 2.449-14.998-2.908z"/><path fill="#755700" d="M725.233 316.943v-5.05l4.203.079 20.281.38-.152 5.203-19.443-.489-4.889-.123z"/><path fill="#8F8F8F" d="m757.83 271.645 13.925 18.67 19.435-4.744-3.672-21.884-3.214-11.172-6.427-6.428-12.397 10.866-7.65 14.692z"/><path fill="#4F5252" d="m750.79 244.25-6.734 5.969 13.773 21.426 19.589-24.946-13.62-3.52-13.008 1.071z"/></g><g display="block"><path fill="#D0AE95" d="m736.253 221.907 13.926-7.958-6.121 36.27-7.805-28.312z"/><path fill="#EBEBEB" d="m747.271 201.246 5.662 25.404-16.682-4.744 11.02-20.66z"/><path fill="#A2A2A2" d="m747.271 201.247-3.214 48.973 33.361-3.52 7.194-1.224 5.203-20.355-1.989-35.504-13.468-3.215-20.047 2.908-7.04 11.937z"/><path fill="#2B2B2B" d="m781.857 243.333 6.122-16.529-14.998-15.151 8.876 31.68z" opacity=".1"/><path fill="#EBEBEB" d="m754.311 189.31 11.782-5.203 8.264 2.295-15.303 14.387-4.743-11.479zM787.673 227.876l-14.692-16.222 14.844-22.038 14.846 35.963-14.998 2.297z"/><path fill="#D0AE95" d="m790.733 249.914 11.938-24.334-16.222.919-4.592 16.834 4.285 6.581h4.591z"/><path fill="#EED2C2" d="m787.519 263.687 3.367-14.08-8.876-5.968-4.592 3.061 10.101 16.987z"/></g><g display="block"><path fill="#A9846C" d="m751.557 176.455 15.608-3.979-12.854 16.834-2.754-12.855z"/><path fill="#D0AE95" d="m756.607 114.32-7.806 31.525 2.755 30.61 10.406-1.071-7.651 13.926 20.354-2.908 22.956-41.016-4.591-21.884-26.628-11.478-9.795 2.296z"/><path fill="#EED2C2" d="m728.448 157.477 5.203-18.671 1.837 11.633-1.225 9.183-5.815-2.145z"/><path fill="#EED2C2" d="m733.345 124.727 11.784-12.396 13.926 1.377-7.499 62.747-16.834 1.53-1.377-53.258z"/><path fill="#4F5252" d="m724.316 113.861 9.029 10.867 23.72 5.969 10.101 19.589 5.356-8.265 7.192-24.332-6.885-21.427-28.925 17.293-19.588.306z"/><path fill="#737373" d="m772.829 96.262-.307 45.758 17.139-4.132 9.947-13.773 4.592-7.499-31.371-20.354z"/><path fill="#4F5252" d="m799.609 151.968-15.457 17.601-7.193-14.539-4.438-13.01 31.68-25.405-4.592 35.353z"/><path fill="#737373" d="m724.316 113.861 32.749 16.835 15.765-34.434-48.514 17.599z"/><path fill="#A9846C" d="m743.445 163.445-9.028 2.297v2.295l9.486-2.907-.458-1.685z"/><path fill="#D0AE95" d="m738.855 136.817 5.355 1.071-6.734 7.347-3.212 14.386-.612-20.815 5.203-1.989z"/><path fill="#4F5252" d="m733.651 136.052 10.253-1.071.307 2.908-10.56.918v-2.755z"/><path fill="#A9846C" d="m772.063 161.456-4.592-5.202 5.204-3.52 4.284 2.295-4.896 6.427z"/><path fill="#EED2C2" d="m766.707 141.868.764 14.386 9.489-1.225 1.683-12.855-11.936-.306z"/><path fill="#A9846C" d="m770.685 145.387 4.438-.152-4.438 5.508v-5.356z"/><path fill="#2B2B2B" d="M737.63 143.857a2.295 2.295 0 1 1 0 4.592 2.297 2.297 0 0 1 0-4.592z"/></g><g display="block"><path fill="#FFF" d="m188.233 194.819-6.886 3.061 3.519 1.989 3.367-5.05zM187.162 178.137l-2.908 3.062 5.662 2.142-2.754-5.204zM197.109 196.654l1.989 7.5 3.215-3.215-5.204-4.285zM191.295 200.632l-2.909 7.194 4.898-1.53-1.989-5.664z"/></g><g display="block"><path fill="#4F5252" d="m327.189 158.089-6.581-1.989-5.203 17.906 6.427 1.99 5.357-17.907z"/><path fill="#858585" d="m308.824 155.641 28.465 8.265 1.376 14.539-33.054-9.031 3.213-13.773z"/><path fill="#6E7073" d="m338.666 178.444-7.651 2.602-30.149-7.806 2.754-4.285 3.214-.459 31.832 9.948z"/><path fill="#4F5252" d="m310.661 188.696 4.743-14.69 6.427 1.99-4.285 15.15-3.825 1.988-3.06-4.438z"/><path fill="#6E7073" d="m308.824 155.641-3.061.459-4.438.765-.459 16.376 5.969-4.745 1.989-12.855z"/></g><g display="block"><path fill="#9E7700" d="m306.528 110.036 9.029-11.632 15.151 9.795-11.172 1.837h-13.008z"/><path fill="#BE8F00" d="m330.708 108.199 22.496 14.692-30.76-7.958-15.916-4.897 24.18-1.837z"/><path fill="#755700" d="m353.204 122.891-38.412 1.377-8.264-14.232 46.676 12.855z"/></g><g display="block"><path fill="#E4C728" d="m297.806 184.107-26.475 11.172-8.876 48.513-2.448 9.029 45.604-5.203 11.172 1.071-.918-8.57-18.059-56.012z"/><path fill="#BE8F00" d="m310.661 188.697-12.856-4.59-1.99 34.74 6.734-.765 5.662-16.835 2.45-12.55zM315.864 240.119l-36.27-16.681-16.221 9.947-3.826 19.895.228 5.235 45.836-9.672 11.018-1.991-.765-6.733z"/><path fill="#2B2B2B" d="m284.492 238.13-9.489 8.417-14.844 3.673 1.224-6.121 17.14-15.457 18.823 4.743 18.518 6.734-31.372-1.989z" opacity=".2"/></g><g display="block"><path d="m350.757 318.474-52.186-9.489-81.108 8.723 68.713 15.151 64.581-14.385z" opacity=".1"/><path fill="#856300" d="m257.711 262.461-1.225 35.811 7.193 3.673 13.314 3.98 11.019-25.864-10.254-10.1-20.047-7.5z"/><path fill="#8D7B2E" d="m279.595 299.497-22.955-7.192-.153 5.967 7.804 6.122 12.702 1.531 2.602-6.428z"/><path fill="#755700" d="m256.487 298.272-13.621 15.61 16.069 1.836 18.059-1.836v-7.958l-20.507-7.652z"/><path fill="#BB8F2C" d="m276.917 313.883-34.074-.057-.006 3.702 34.073.056.007-3.701z"/><path fill="#9E7700" d="m288.013 280.061 11.478 26.781 5.049.919 18.057.306-3.825-43.77-19.742 1.531-11.017 14.233z"/><path fill="#BE8F00" d="m257.712 262.462 30.301 17.6 30.759-15.764-18.977-1.683-42.083-.153z"/><path fill="#856300" d="m259.548 253.278 13.62-1.53 4.438 2.907 3.826-3.979 35.198-3.825 2.142 17.446-36.728-1.224-3.52-2.449-4.744 2.296-16.068-.459 1.836-9.183z"/><path fill="#CCAC13" d="m281.432 250.677.612 12.396-8.264-.153-.612-11.172 8.264-1.071z"/><path fill="#755700" d="m299.337 306.843-3.367 8.724 28.924.612-2.296-8.111-15.151-3.979-8.11 2.754z"/><path fill="#CCAC13" d="m324.894 320.005-29.078.152.155-4.59 28.923.612v3.826z"/><path fill="#BE8F00" d="m296.582 300.109 25.251-.766.765 8.724-23.108-1.225-2.908-6.733z"/><path fill="#856300" d="m313.11 281.897 6.886-3.825 1.377 16.376-14.997 1.222-4.897-15.609 11.631 1.836z"/><path fill="#B58A00" d="m319.997 278.07-5.815 7.348-12.703-5.358 18.518-1.99z"/></g><g display="block"><path fill="#DFBCA4" d="m240.417 137.43 1.148 13.766.689 8.272 5.05 20.507 17.905 2.296 9.641 7.347 12.855-1.837 10.1-3.673 4.133-17.142 3.825-10.865 3.52-12.549-.612-18.976-16.528 9.334-9.964-6.135-22.326.626 1.531 7.749-2.018-8.309-19.099 1.25.15 8.339z"/><path fill="#C3977A" d="m285.981 130.482 1.418 26.537 5.203 2.755 4.744-3.214.613-9.029-4.438.306-1.378-13.315-6.162-4.04z"/><path fill="#C3977A" d="m267.505 158.09 5.968-13.008 13.009-10.1-21.58-.46 2.603 23.568zM255.875 155.642l-13.774-18.212 14.386-3.366-.612 21.578z"/><path fill="#C09C84" d="m242.254 159.468 63.51-3.367-7.959 28.007-8.263 3.367-7.193 2.601-11.019 5.205-3.672-8.112-3.215-4.134-20.047.767-2.142-24.334z"/><path fill="#A77D61" d="m287.4 157.018 1.07 24.794-5.815 2.908-1.07 6.734 3.06 6.58 13.16-13.926 5.664-19.896-.154-3.672 2.448-4.44-8.416.459-9.947.459z"/><path fill="#8A6651" d="m264.443 183.036 27.088-1.377-6.887 16.375-6.887 1.685-6.427-4.439-6.887-12.244zM297.347 156.559l6.121 7.653 2.295-8.112-8.416.459zM258.169 166.966l20.813 1.837-.153 1.991-20.813-1.837.153-1.991zM267.505 158.09l-5.663 4.438-5.815-3.826 5.815-.764 5.663.152z"/><path fill="#464646" d="m286.482 134.981-19.742 6.888-.306-5.51 7.805-1.224 12.243-.154zM254.956 142.939l-.46-6.427-5.663-.459-6.733 1.377 12.856 5.509z"/><path fill="#464646" d="m292.144 134.522 1.376 13.315 4.439-.306.611-6.58 10.713 2.601 5.509-19.283-12.814 1.005-20.024 1.732 10.19 7.516z"/><path fill="#8A6651" d="m306.07 145.847-4.132-.918-1.224 7.958 5.356-7.04z"/><path fill="#9E7700" d="m287.154 108.801 11.569.776 7.806.459 4.436 6.275 3.827 7.958-29.88 3.163-.731-15.912 2.973-2.719z"/><path fill="#856300" d="m306.528 110.037-23.72-8.111-20.813-4.744-22.037 17.14.296 14.638 45.504-1.638.334-16.797 4.061.277 7.346-.306 9.029-.459z"/><path fill="#BE8F00" d="m261.996 97.181 35.044-3.061 9.488 15.916-44.532-12.855z"/><path fill="#E8C9B6" d="m259.853 128.401-5.356 8.111 1.53 22.191 11.478-.613-1.224-21.731-6.428-7.958z"/><path fill="#2B2B2B" d="M247.619 145.123a2.821 2.821 0 1 0 .942 5.564 2.821 2.821 0 0 0-.942-5.564zM272.016 144.173a2.821 2.821 0 1 0 .942 5.564 2.821 2.821 0 0 0-.942-5.564z"/><path fill="#E4C728" d="m290.154 110.801-61.979 4.285 1.53 23.111 24.792-1.684 5.356-8.111 6.581 7.958 25.709-1.837-.153-13.775-1.836-9.947z"/><path fill="#464646" d="M284.032 116.769 261.23 118.3l8.723 11.325 14.997-1.071-.918-11.785zM233.99 120.29l22.802-1.684-7.192 12.397-14.845 1.071-.765-11.784z"/><path fill="#CCAC13" d="m292.143 134.522 22.649-10.253-24.638-13.469 1.989 23.722z"/></g><g display="block"><path fill="#CCAC13" d="m255.568 212.726-4.437 3.213 3.978 6.428 8.264 11.017L261.231 219l-1.684-5.356-3.979-.918z"/><path fill="#4F5252" d="m280.667 218.08-5.664 28.467-13.62-2.448 5.663-28.926 13.621 2.907z"/><path fill="#CCAC13" d="m322.139 217.622 6.58-22.496-18.059-6.429-8.111 29.384 7.653 4.744 11.937-5.203z"/><path fill="#E4C728" d="m298.112 234.762 17.752 5.356 6.274-22.496-19.589.458-5.355 8.265.918 8.417z"/><path fill="#DFBCA4" d="M280.666 218.081h21.884l-4.438 16.682-19.589-6.121-1.683-4.745 3.826-5.816z"/><path fill="#C3977A" d="m278.524 228.642-15.15 4.742 1.529-12.242 2.142-5.968 5.357-.612 8.264 3.518-2.142 10.562z"/><path fill="#8A6651" d="m263.373 233.384-5.968-8.569-1.837-12.09 5.51-.153 5.968 2.601-3.673 18.211z"/><path fill="#C3977A" d="m237.511 220.377-8.724-4.591-1.53-9.029 7.652 5.355 2.602 8.265z"/><path fill="#737373" d="m284.645 198.033-53.256-11.172-2.449 9.642-1.683 10.254 53.409 11.324 3.979-20.048z"/><path fill="#4F5252" d="m231.389 186.861-7.346 5.662-1.377 3.674-.153 3.52 4.744 7.04 4.132-19.896z"/><path fill="#464646" d="m224.043 192.523-7.652-1.683.612 3.981 2.143 4.132 3.367.765 1.53-7.195z"/><path fill="#737373" d="m216.392 190.84-6.274-1.378.306 3.673 2.448 4.439 6.274 1.378-2.754-8.112z"/><path fill="#464646" d="m210.117 189.463-6.121-1.377.918 3.98 1.683 4.131 6.275 1.377-2.755-8.111z"/><path fill="#737373" d="m203.996 188.086-5.97-1.225.613 3.673 1.989 4.439 5.97 1.224-2.602-8.111z"/><path fill="#464646" d="m198.027 186.861-5.968-1.377 2.601 8.11 5.815 1.226-2.448-7.959z"/><path fill="#C3977A" d="m263.374 233.384-15.763-22.344-9.795.46-.306 8.876 8.724 19.59 17.14-6.582z"/><path fill="#8A6651" d="m247.61 211.041-9.947-2.601-10.407-1.683 10.253 13.62 10.101-9.336z"/><path fill="#DFBCA4" d="m247.61 211.041-4.897-11.323-13.161-3.981-2.296 11.02 20.354 4.284z"/><path fill="#4F5252" d="m278.275 202.564-12.85-2.552-.378 1.902 12.85 2.552.378-1.902zM277.541 206.069l-12.85-2.553-.378 1.903 12.851 2.551.377-1.901zM276.877 209.528l-12.85-2.553-.378 1.903 12.85 2.551.378-1.901z"/></g></g></svg>